<?xml version="1.0" encoding="UTF-8"?>
<svg width="1200pt" height="1200pt" version="1.1" viewBox="0 0 1200 1200" xmlns="http://www.w3.org/2000/svg">
 <path d="m639.71 371.82 130.04 133.63-581.46 642.84c-25.285 27.109-70.465 27.109-97.562 0l-70.395-72.219c-27.098-25.273-27.098-70.418 0-97.488z"/>
 <path d="m1185.1 509.04-97.562 99.34c-19.836 19.871-50.57 19.871-72.219 0l-21.66-23.461c-16.262-14.461-23.531-41.559-14.449-54.191 16.199-10.824 10.824-43.332-19.91-72.254-43.285-45.145-99.301-46.934-120.95-23.473-9.0117 7.2344-37.922 37.922-37.922 37.922l-133.66-131.8 21.719-21.684s5.375-5.4102 16.211-18.047c41.559-41.543-1.8125-88.488-1.8125-88.488-117.33-115.57-281.66-113.76-281.66-113.76l-1.8125-41.559c330.48-84.891 455.06 59.605 500.25 104.75 41.473 41.52 84.84 84.855 95.68 95.715 23.461 23.461 0 90.254 34.285 128.22 16.262 16.234 37.922 23.473 54.191 23.473 18.098-16.234 46.934-10.824 61.383 5.4102l19.91 21.684c19.812 19.875 19.812 50.559-0.023438 72.207z"/>
</svg>
